<svg width="531" height="531" viewBox="0 0 531 531" fill="none" xmlns="http://www.w3.org/2000/svg">
<path fill-rule="evenodd" clip-rule="evenodd" d="M250.133 48.5969C195.523 53.7089 150.808 73.8059 113.782 109.878C83.901 138.99 64.54 171.947 54.572 210.673C43.767 252.651 46.394 301.016 61.651 340.995C85.564 403.659 134.776 450.818 198.521 472.155C223.153 480.4 245.224 483.519 272.995 482.679C304.669 481.721 331.82 475.029 359.207 461.43C456.605 413.068 504.514 304.398 473.519 202.141C453.157 134.967 400.647 81.2219 334.14 59.4859C306.889 50.5799 274.205 46.3429 250.133 48.5969ZM284.633 77.4699C303.784 78.8329 327.509 85.3079 346.633 94.3909C403.467 121.385 441.744 171.897 452.767 234.449C455.431 249.564 455.2 282.442 452.321 298.179C442.963 349.31 411.81 395.423 366.781 424.793C308.289 462.945 228.964 464.141 168.221 427.787C142.324 412.288 117.368 387.308 101.783 361.284C77.729 321.118 69.429 270.812 79.289 224.949C91.296 169.093 129.771 120.678 182.133 95.5349C204.259 84.9099 229.017 78.3919 252.633 76.9729C264.416 76.2649 268.613 76.3299 284.633 77.4699ZM244.633 119.565C205.384 126.61 170.869 147.895 146.746 179.932C128.07 204.735 121.44 224.8 120.472 259.449C119.681 287.76 122.995 305.427 133.06 326.558C146.862 355.532 167.502 376.618 195.633 390.482C218.401 401.704 236.53 405.539 262.597 404.65C271.417 404.349 281.783 403.399 285.633 402.538C337.708 390.891 377.567 352.556 390.738 301.449C393.364 291.259 393.575 289.031 393.603 271.189C393.628 254.934 393.867 251.865 395.133 251.52C395.958 251.295 401.808 249.906 408.133 248.434C414.458 246.962 420.242 245.256 420.987 244.644C422.922 243.054 424.091 239.504 423.466 237.115C423.171 235.988 415.456 228.402 406.321 220.258C357.075 176.352 358.989 177.949 355.626 177.949C353.849 177.949 351.761 178.722 350.899 179.699C349.196 181.628 317.133 258.969 317.133 261.146C317.133 263.723 320.227 266.949 322.699 266.949C324.811 266.949 355.506 260.743 360.328 259.342C362.875 258.602 363.487 263.923 362.253 276.07C360.254 295.758 354.756 310.988 344.069 326.448C338.166 334.986 324.184 348.788 315.901 354.251C285.944 374.011 249.929 378.935 216.633 367.824C185.72 357.508 160.378 333.642 151.463 306.449C148.161 296.378 147.735 280.272 150.497 269.949C158.041 241.754 172.81 218.09 199.259 191.819C218.807 172.402 222.876 169.581 211.932 183.034C179.745 222.602 163.162 256.446 163.14 282.617C163.132 291.725 163.659 293.949 165.822 293.949C168.748 293.949 182.831 288.585 192.175 283.912C219.337 270.327 240.006 251.104 251.033 229.172C260.853 209.64 266.453 179.504 267.838 138.736C268.301 125.12 268.145 120.668 267.164 119.486C265.537 117.526 255.801 117.56 244.633 119.565Z" fill="#4BA985"/>
</svg>
