<svg width="435" height="435" viewBox="0 0 435 435" fill="none" xmlns="http://www.w3.org/2000/svg">
<g clip-path="url(#clip0_82_103709)">
<path fill-rule="evenodd" clip-rule="evenodd" d="M202.133 0.596929C147.523 5.70893 102.808 25.8059 65.782 61.8779C35.901 90.9899 16.54 123.947 6.57199 162.673C-4.23301 204.651 -1.60602 253.016 13.651 292.995C37.564 355.659 86.776 402.818 150.521 424.155C175.153 432.4 197.224 435.519 224.995 434.679C256.669 433.721 283.82 427.029 311.207 413.43C408.605 365.068 456.514 256.398 425.519 154.141C405.157 86.9669 352.647 33.2219 286.14 11.4859C258.889 2.57993 226.205 -1.65707 202.133 0.596929ZM236.633 29.4699C255.784 30.8329 279.509 37.3079 298.633 46.3909C355.467 73.3849 393.744 123.897 404.767 186.449C407.431 201.564 407.2 234.442 404.321 250.179C394.963 301.31 363.81 347.423 318.781 376.793C260.289 414.945 180.964 416.141 120.221 379.787C94.324 364.288 69.368 339.308 53.783 313.284C29.729 273.118 21.429 222.812 31.289 176.949C43.296 121.093 81.771 72.6779 134.133 47.5349C156.259 36.9099 181.017 30.3919 204.633 28.9729C216.416 28.2649 220.613 28.3299 236.633 29.4699ZM196.633 71.5649C157.384 78.6099 122.869 99.8949 98.746 131.932C80.07 156.735 73.44 176.8 72.472 211.449C71.681 239.76 74.995 257.427 85.06 278.558C98.862 307.532 119.502 328.618 147.633 342.482C170.401 353.704 188.53 357.539 214.597 356.65C223.417 356.349 233.783 355.399 237.633 354.538C289.708 342.891 329.567 304.556 342.738 253.449C345.364 243.259 345.575 241.031 345.603 223.189C345.628 206.934 345.867 203.865 347.133 203.52C347.958 203.295 353.808 201.906 360.133 200.434C366.458 198.962 372.242 197.256 372.987 196.644C374.922 195.054 376.091 191.504 375.466 189.115C375.171 187.988 367.456 180.402 358.321 172.258C309.075 128.352 310.989 129.949 307.626 129.949C305.849 129.949 303.761 130.722 302.899 131.699C301.196 133.628 269.133 210.969 269.133 213.146C269.133 215.723 272.227 218.949 274.699 218.949C276.811 218.949 307.506 212.743 312.328 211.342C314.875 210.602 315.487 215.923 314.253 228.07C312.254 247.758 306.756 262.988 296.069 278.448C290.166 286.986 276.184 300.788 267.901 306.251C237.944 326.011 201.929 330.935 168.633 319.824C137.72 309.508 112.378 285.642 103.463 258.449C100.161 248.378 99.735 232.272 102.497 221.949C110.041 193.754 124.81 170.09 151.259 143.819C170.807 124.402 174.876 121.581 163.932 135.034C131.745 174.602 115.162 208.446 115.14 234.617C115.132 243.725 115.659 245.949 117.822 245.949C120.748 245.949 134.831 240.585 144.175 235.912C171.337 222.327 192.006 203.104 203.033 181.172C212.853 161.64 218.453 131.504 219.838 90.7359C220.301 77.1199 220.145 72.6679 219.164 71.4859C217.537 69.5259 207.801 69.5599 196.633 71.5649Z" fill="#4BA985"/>
</g>
<defs>
<clipPath id="clip0_82_103709">
<rect width="435" height="435" fill="white"/>
</clipPath>
</defs>
</svg>
